<svg xmlns="http://www.w3.org/2000/svg" width="48" height="48"><g fill="none" fill-rule="evenodd" stroke="#202020"><circle cx="24" cy="25" r="13" stroke-width="2"/><path stroke-width="2.1" d="M22.61 29.78c11.03 3.584 20.594 4.573 21.362 2.21.297-.915-.764-2.196-2.816-3.63-3.254-2.278-9-4.941-15.765-7.14-6.717-2.182-12.89-3.403-16.865-3.49-2.552-.055-4.198.356-4.498 1.28-.768 2.364 7.551 7.186 18.581 10.77z"/><path stroke-width="2" d="M26 12c7.667 8.114 7.667 16.78 0 26m-4.25-26c-7.667 8.114-7.667 16.78 0 26M24 12v26"/></g></svg>