<svg xmlns="http://www.w3.org/2000/svg" width="48" height="48"><g fill="none" fill-rule="evenodd" stroke="#202020" stroke-width="2"><path stroke-linejoin="bevel" d="M33.5 17c0 5.523-4.477 10-10 10s-10-4.477-10-10 4.477-10 10-10 10 4.477 10 10z"/><path d="M20 20.428h5.75c.968 0 1.753-.757 1.753-1.691 0-.935-.785-1.693-1.754-1.693h-3.995c-.968 0-1.754-.756-1.754-1.691 0-.934.786-1.692 1.754-1.692h5.75M23.623 11v11.936m3.228 16.635H18.11L7 30.7l3.135-2.7 8.057 5.286h3.95"/><path d="M41.143 38.131l-8.652-7h-9.348v4.02h6.361"/></g></svg>