<svg xmlns="http://www.w3.org/2000/svg" width="48" height="48"><g fill="none" fill-rule="evenodd" stroke="#202020" stroke-width="2"><path stroke-linejoin="bevel" d="M27 9a3 3 0 1 1-6 0 3 3 0 0 1 6 0zM7.5 25.5c0-8.082 5.81-14.806 13.48-16.224m9.975 1.257C36.592 13.157 40.5 18.872 40.5 25.5a16.51 16.51 0 0 1-.646 4.588m-5.532 8.286A16.431 16.431 0 0 1 24 42a16.472 16.472 0 0 1-13.112-6.482"/><path stroke-linejoin="bevel" d="M42 33a3 3 0 1 1-6 0 3 3 0 0 1 6 0zm-30 0a3 3 0 1 1-6 0 3 3 0 0 1 6 0z"/><path stroke-linejoin="round" d="M21 20.768l8.301 5.354L15.01 34l8.971-22 9.216 22-14.182-7.878L27 20.768"/></g></svg>