<svg xmlns="http://www.w3.org/2000/svg" width="48" height="48"><g fill="none" fill-rule="evenodd" stroke="#202020" stroke-width="2"><path d="M18 11.5a6.244 6.244 0 0 1 6.244 6.244c0 1.205-.619 2.497-1.857 3.876a8 8 0 0 0-2.045 5.342v.538h-4.683v-.537a8 8 0 0 0-2.046-5.343c-1.238-1.38-1.857-2.671-1.857-3.876A6.244 6.244 0 0 1 18 11.5z"/><path d="M5.623 16.18v20.812h36.58V16.18H30.436M28.077 8L25 10.209M8 8l3.077 2.209m8.631 26.783v5.376M29 36.992v5.376m-16.506 0h24.272M18.1 2.966v5.18M15 31.5h6"/></g></svg>