<svg xmlns="http://www.w3.org/2000/svg" width="48" height="48"><g fill="none" fill-rule="evenodd" stroke="#202020" stroke-width="2"><path stroke-linejoin="bevel" d="M33.751 17.186c0 5-8.415 14.725-10.48 17.29-2.066-2.565-10.481-12.29-10.481-17.29C12.796 11.563 17.485 7.007 23.27 7c5.786.007 10.475 4.563 10.481 10.186z"/><path d="M26.369 15v7h-6.151v-7"/><path stroke-linejoin="bevel" d="M13.92 30.838C9.15 31.62 6 32.968 6 34.5c0 2.416 7.835 4.375 17.5 4.375S41 36.916 41 34.5c0-1.62-3.524-3.035-8.761-3.791"/><path d="M16.224 18l7.263-5 6.423 5"/></g></svg>