<svg xmlns="http://www.w3.org/2000/svg" width="48" height="48"><g fill="none" fill-rule="evenodd" stroke="#202020" transform="translate(5 4)"><path stroke-width="2" d="M22.943 28.356h9.724v9.877H5v-9.877h14.862"/><circle cx="19" cy="13" r="2" stroke-width="2"/><path stroke-width="2" d="M28.565 5.227a10.018 10.018 0 0 1 2.97 7.155 10.025 10.025 0 0 1-3 7.143"/><path stroke-width="1.959" d="M33.05.5c3.202 3.084 4.958 7.171 4.95 11.509-.01 4.34-1.788 8.42-5 11.491"/><path stroke-width="2" d="M25.51 10.5c.64.536.992 1.247.99 2.002-.002.754-.358 1.464-1 1.998M9.435 5.227a10.018 10.018 0 0 0-2.97 7.155 10.025 10.025 0 0 0 3 7.143"/><path stroke-width="1.959" d="M4.95.5C1.747 3.584-.009 7.671 0 12.009c.01 4.34 1.788 8.42 5 11.491"/><path stroke-width="2" d="M12.49 10.5c-.64.536-.992 1.247-.99 2.002.002.754.358 1.464 1 1.998m-4 19h2"/><path stroke-linejoin="bevel" stroke-width="2" d="M19 29.357V14.505"/></g></svg>