<svg width="43" height="42" xmlns="http://www.w3.org/2000/svg"><g fill="none" fill-rule="evenodd"><path d="M2.895 20.574s-.402 8.76 5.714 14.136C14.724 40.085 22.246 40 22.246 40l2.644-6.84-5.398-2.247-2.699 2.958s-5.54-1.963-7.981-7.879l3.043-2.304L9.385 18l-6.49 2.574z" stroke="#202020" stroke-width="2.47"/><g stroke="#000" stroke-width="2.308"><path d="M31.038 7.192a5.193 5.193 0 1 1-10.385 0 5.193 5.193 0 0 1 10.385 0z"/><path stroke-linejoin="round" d="M15.209 23.658l1.067-2.773L17.77 17h17.595l5.481 15H29.764"/></g><path stroke="#000" stroke-width="2.308" stroke-linejoin="round" d="M20.654 17l5.192 7.5 5.192-7.5"/></g></svg>