<svg width="40" height="40" xmlns="http://www.w3.org/2000/svg"><g fill="none" fill-rule="evenodd"><g stroke="#000" stroke-width="2"><path d="M14.566 22a4 4 0 1 1-8 0 4 4 0 0 1 8 0z"/><path stroke-linejoin="round" d="M10.868 39H1.066l4.04-9h11.11l3.85 9h-3.828z"/></g><path stroke="#202020" stroke-width="2.133" d="M5 14.3V2h32.07v21.325h-4.233l-7.407 6.65v-6.65h-6.724"/><path d="M18.17 9.09a2.779 2.779 0 0 1 2.779-2.78h.404a2.892 2.892 0 0 1 2.87 2.53l.06.473a3.248 3.248 0 0 1-1.494 3.158l-.195.123a3.332 3.332 0 0 0-1.558 2.82h0m-.094 1.656v2.481" stroke="#202020" stroke-width="2"/></g></svg>