<svg xmlns="http://www.w3.org/2000/svg" xmlns:xlink="http://www.w3.org/1999/xlink" width="80" height="80"><defs><circle id="a" cx="40" cy="40" r="40"/></defs><g fill="none" fill-rule="evenodd"><mask id="b" fill="#fff"><use xlink:href="#a"/></mask><use fill="#D95046" fill-rule="nonzero" xlink:href="#a"/><g mask="url(#b)"><g fill-rule="nonzero"><path fill="#CD443A" d="M-98.286-122.286v62.924L40.843 39.599v-63.024zm0 125.822V66.46l139.129 98.96v-63.023zM40.843-86.222v62.924l139.129 98.96V12.64zm0 125.822v62.923l139.129 98.961V138.46z"/><path fill="#EA574D" d="M40.843-23.712v63.311L84.82 7.944z"/><path fill="#C03D33" d="M40.843 39.6v63.31L-3.134 71.256z"/></g><g stroke="#FFF" stroke-width="3.007"><path d="M38.206 34.19l3.052 17.514 4.546-4.546 8.455 8.455 4.897-4.897-8.455-8.455 5.02-5.02-17.515-3.052z"/><path d="M50.098 30.773V26.4H20.594v19.404h15.26m-9.851-15.563v12.196"/></g></g></g></svg>