<svg xmlns="http://www.w3.org/2000/svg" xmlns:xlink="http://www.w3.org/1999/xlink" width="80" height="80"><defs><circle id="a" cx="40" cy="40" r="40"/><path id="d" d="M0 0h33.333v2.667H0z"/><filter id="c" width="229%" height="1712.5%" x="-64.5%" y="-543.7%" filterUnits="objectBoundingBox"><feOffset dy="7" in="SourceAlpha" result="shadowOffsetOuter1"/><feGaussianBlur in="shadowOffsetOuter1" result="shadowBlurOuter1" stdDeviation="6"/><feColorMatrix in="shadowBlurOuter1" values="0 0 0 0 0.239215686 0 0 0 0 0.239215686 0 0 0 0 0.239215686 0 0 0 0.04 0"/></filter><path id="f" d="M0 0h2.667v36H0z"/><filter id="e" width="1712.5%" height="219.4%" x="-806.2%" y="-40.3%" filterUnits="objectBoundingBox"><feOffset dy="7" in="SourceAlpha" result="shadowOffsetOuter1"/><feGaussianBlur in="shadowOffsetOuter1" result="shadowBlurOuter1" stdDeviation="6"/><feColorMatrix in="shadowBlurOuter1" values="0 0 0 0 0.239215686 0 0 0 0 0.239215686 0 0 0 0 0.239215686 0 0 0 0.04 0"/></filter><path id="h" d="M32.889 0h2.667v12.444h-2.667z"/><filter id="g" width="1712.5%" height="445.5%" x="-806.2%" y="-116.5%" filterUnits="objectBoundingBox"><feOffset dy="7" in="SourceAlpha" result="shadowOffsetOuter1"/><feGaussianBlur in="shadowOffsetOuter1" result="shadowBlurOuter1" stdDeviation="6"/><feColorMatrix in="shadowBlurOuter1" values="0 0 0 0 0.239215686 0 0 0 0 0.239215686 0 0 0 0 0.239215686 0 0 0 0.04 0"/></filter></defs><g fill="none" fill-rule="evenodd"><mask id="b" fill="#fff"><use xlink:href="#a"/></mask><use fill="#D95046" fill-rule="nonzero" xlink:href="#a"/><g mask="url(#b)"><g fill-rule="nonzero"><path fill="#CD443A" d="M-98.286-122.286v62.924L40.843 39.599v-63.024zm0 125.822V66.46l139.129 98.96v-63.023zM40.843-86.222v62.924l139.129 98.96V12.64zm0 125.822v62.923l139.129 98.961V138.46z"/><path fill="#EA574D" d="M40.843-23.712v63.311L84.82 7.944z"/><path fill="#C03D33" d="M40.843 39.6v63.31L-3.134 71.256z"/></g><g transform="translate(21.333 24)"><use fill="#000" filter="url(#c)" xlink:href="#d"/><use fill="#FFF" xlink:href="#d"/></g><path fill="#FFF" fill-rule="nonzero" d="M29.333 33.333H48V36H29.333zm0 9.334h9.333v2.667h-9.333z"/><path stroke="#FFF" stroke-width="2.667" d="M51.12 45.334V59.54M44 53.333l7.051 7.111 7.171-7.11"/><g transform="translate(21.333 24)"><use fill="#000" filter="url(#e)" xlink:href="#f"/><use fill="#FFF" xlink:href="#f"/></g><g transform="translate(21.333 24)"><use fill="#000" filter="url(#g)" xlink:href="#h"/><use fill="#FFF" xlink:href="#h"/></g></g></g></svg>