<svg xmlns="http://www.w3.org/2000/svg" xmlns:xlink="http://www.w3.org/1999/xlink" width="80" height="80"><defs><circle id="a" cx="40" cy="40" r="40"/><filter id="c" width="270.5%" height="343.3%" x="-87.5%" y="-121.7%" filterUnits="objectBoundingBox"><feOffset dy="7" in="SourceAlpha" result="shadowOffsetOuter1"/><feGaussianBlur in="shadowOffsetOuter1" result="shadowBlurOuter1" stdDeviation="6"/><feColorMatrix in="shadowBlurOuter1" result="shadowMatrixOuter1" values="0 0 0 0 0.239215686 0 0 0 0 0.239215686 0 0 0 0 0.239215686 0 0 0 0.04 0"/><feMerge><feMergeNode in="shadowMatrixOuter1"/><feMergeNode in="SourceGraphic"/></feMerge></filter></defs><g fill="none" fill-rule="evenodd"><mask id="b" fill="#fff"><use xlink:href="#a"/></mask><use fill="#D95046" fill-rule="nonzero" xlink:href="#a"/><g fill-rule="nonzero" mask="url(#b)"><path fill="#CD443A" d="M-98.286-122.286v62.924L40.843 39.599v-63.024zm0 125.822V66.46l139.129 98.96v-63.023zM40.843-86.222v62.924l139.129 98.96V12.64zm0 125.822v62.923l139.129 98.961V138.46z"/><path fill="#EA574D" d="M40.843-23.712v63.311L84.82 7.944z"/><path fill="#C03D33" d="M40.843 39.6v63.31L-3.134 71.256z"/></g><g stroke="#FFF" filter="url(#c)" transform="translate(18.667 25.778)"><path stroke-width="2.904" d="M13.32 20.326H0V5.807h18.874v8.632"/><path stroke-width="2.904" d="M0 6.546l9.437 7.973 9.437-8.712"/><path stroke-width="2.667" d="M17.304 27.704h24.918v-7.269l-12.304-5.893-12.614 5.901v7.26z"/><ellipse cx="29.763" cy="7.259" stroke-width="2.667" rx="5.992" ry="5.926"/></g></g></svg>