<svg xmlns="http://www.w3.org/2000/svg" xmlns:xlink="http://www.w3.org/1999/xlink" width="80" height="80"><defs><circle id="a" cx="40" cy="40" r="40"/></defs><g fill="none" fill-rule="evenodd"><mask id="b" fill="#fff"><use xlink:href="#a"/></mask><use fill="#D95046" fill-rule="nonzero" xlink:href="#a"/><g mask="url(#b)"><g fill-rule="nonzero"><path fill="#CD443A" d="M-98.286-122.286v62.924L40.843 39.599v-63.024zm0 125.822V66.46l139.129 98.96v-63.023zM40.843-86.222v62.924l139.129 98.96V12.64zm0 125.822v62.923l139.129 98.961V138.46z"/><path fill="#EA574D" d="M40.843-23.712v63.311L84.82 7.944z"/><path fill="#C03D33" d="M40.843 39.6v63.31L-3.134 71.256z"/></g><g stroke="#FFF" stroke-width="2.667" transform="translate(19.048 19.048)"><path d="M16.772 7.96C7.67 8.596.807 16.491 1.444 25.593c.636 9.102 8.531 15.965 17.633 15.329 9.102-.637 15.965-8.532 15.328-17.634M5.023 32.153l14.157-9.301m-3.508 11.554L34.2 21.35M1.404 24.441L24.683 8.22"/><circle cx="20.928" cy="20.686" r="3.923"/><circle cx="35.948" cy="19.184" r="3.923"/><circle cx="26.936" cy="5.667" r="3.923"/></g></g></g></svg>