<svg xmlns="http://www.w3.org/2000/svg" xmlns:xlink="http://www.w3.org/1999/xlink" width="80" height="80"><defs><circle id="a" cx="40" cy="40" r="40"/></defs><g fill="none" fill-rule="evenodd"><mask id="b" fill="#fff"><use xlink:href="#a"/></mask><use fill="#D95046" fill-rule="nonzero" xlink:href="#a"/><g mask="url(#b)"><g fill-rule="nonzero"><path fill="#CD443A" d="M-98.286-122.286v62.924L40.843 39.599v-63.024zm0 125.822V66.46l139.129 98.96v-63.023zM40.843-86.222v62.924l139.129 98.96V12.64zm0 125.822v62.923l139.129 98.961V138.46z"/><path fill="#EA574D" d="M40.843-23.712v63.311L84.82 7.944z"/><path fill="#C03D33" d="M40.843 39.6v63.31L-3.134 71.256z"/></g><path d="M35.253 20.449s-7.078-.325-11.422 4.617-4.275 11.02-4.275 11.02l5.527 2.136 1.816-4.361-2.39-2.181s1.585-4.478 6.366-6.45l1.862 2.46 4.596-1.996-2.08-5.245zM20.445 43.077h2.666m2.667 12.035h2.667m-6.222-5.334h2.666m27.668-31.111a.364.364 0 0 0-.302.161l-1.12 1.676-2.09.48a.364.364 0 0 0-.087.032l-1.972 1.026a.363.363 0 0 0-.156.157l-2.027 3.957-1.58 1.409a.362.362 0 0 0-.079.101l-2.739 5.205c-.004.008-.791 1.322-1.604 2.687a583.2 583.2 0 0 0-1.142 1.925c-.322.545-.532.897-.607 1.047-.129.257-.297.771-.47 1.287-.172.516-.323.988-.323.988a.361.361 0 0 0-.017.12l.084 2.95-.763 3.634a.362.362 0 0 0 .129.357l1.197.955 1.061 3.58-.076.609a.361.361 0 0 0 .098.295l1.8 1.88a.363.363 0 0 0 .085.066l1.876 1.057 1.214 2.42.23 1.219-.223.589c-.035.094-.03.2.016.29l.6 1.196a.363.363 0 0 0 .539.131l1.886-1.368a.362.362 0 0 0 .15-.3l-.084-4.033 1.574-4.13 2.08-1.908a.362.362 0 0 0 .074-.093l2.058-3.761a.362.362 0 0 0 .032-.082l2.916-11.114a.361.361 0 0 0 .012-.08l.08-2.323 1.341-1.179a.355.355 0 0 0 .106-.161l1.2-3.762a.361.361 0 0 0 .01-.186l-.65-2.998L58.59 22.5a.361.361 0 0 0-.013-.46l-.581-.663-.414-.66a.363.363 0 0 0-.237-.162l-1.601-.32-1.38-1.455a.364.364 0 0 0-.263-.113h-1.544z" stroke="#FFF" stroke-width="2.667"/></g></g></svg>