<svg xmlns="http://www.w3.org/2000/svg" xmlns:xlink="http://www.w3.org/1999/xlink" width="80" height="80"><defs><circle id="a" cx="40" cy="40" r="40"/></defs><g fill="none" fill-rule="evenodd"><mask id="b" fill="#fff"><use xlink:href="#a"/></mask><use fill="#D95046" fill-rule="nonzero" xlink:href="#a"/><g mask="url(#b)"><g fill-rule="nonzero"><path fill="#CD443A" d="M-98.286-122.286v62.924L40.843 39.599v-63.024zm0 125.822V66.46l139.129 98.96v-63.023zM40.843-86.222v62.924l139.129 98.96V12.64zm0 125.822v62.923l139.129 98.961V138.46z"/><path fill="#EA574D" d="M40.843-23.712v63.311L84.82 7.944z"/><path fill="#C03D33" d="M40.843 39.6v63.31L-3.134 71.256z"/></g><g stroke="#FFF"><path d="M35.253 20.449s-7.078-.325-11.422 4.617-4.275 11.02-4.275 11.02l5.527 2.136 1.816-4.361-2.39-2.181s1.585-4.478 6.366-6.45l1.862 2.46 4.596-1.996-2.08-5.245zM20.445 43.077h2.666m2.667 12.035h2.667m-6.222-5.334h2.666" stroke-width="2.667"/><g stroke-linejoin="bevel" stroke-width="1.984"><path d="M59.937 45.714c0 7.854-6.369 14.223-14.223 14.223-7.856 0-14.222-6.369-14.222-14.223 0-7.854 6.366-14.222 14.222-14.222 7.854 0 14.223 6.368 14.223 14.222zm-28.445 0h28.444"/><path d="M44.722 32.154l-2.313 5.66c-2.26 5.53-2.204 11.86.153 17.342l1.772 4.119m3.034-27.121l2.313 5.66c2.26 5.53 2.204 11.86-.153 17.342l-1.772 4.119"/></g></g></g></g></svg>