<svg xmlns="http://www.w3.org/2000/svg" viewBox="0 0 30 30"><path d="M25.5 10c-1.9 0-3.5 1.6-3.5 3.5 0 .6.2 1.1.4 1.6l-11 7.7 1.2 1.6 10.9-7.7c.1 2.5-.8 4.9-2.4 6.8-1.8 2-4.2 3.2-6.9 3.4-3.5.2-6.7-1.4-8.7-4l8.3-5.4c.5.3 1.1.5 1.7.5 1.9 0 3.5-1.6 3.5-3.5S17.4 11 15.5 11 12 12.6 12 14.5c0 .6.1 1.1.4 1.5l-7.9 5.2c-.5-1.1-.8-2.3-.9-3.5v-.2l14.3-10c.4.3 1 .5 1.6.5C21.4 8 23 6.4 23 4.5S21.4 1 19.5 1 16 2.6 16 4.5c0 .6.2 1.1.4 1.6L3.7 14.9c.9-4.3 4.5-7.6 9.1-7.9l-.1-2c-3.2.2-6.2 1.7-8.3 4.1-2.1 2.4-3.1 5.5-2.9 8.7C2 24.1 7.2 29 13.5 29h.8c3.2-.2 6.1-1.7 8.2-4.1 1.9-2.2 2.9-5 2.9-7.9 1.9 0 3.5-1.6 3.5-3.5S27.4 10 25.5 10zm-10 3c.8 0 1.5.7 1.5 1.5s-.7 1.5-1.5 1.5-1.5-.7-1.5-1.5.7-1.5 1.5-1.5zm4-10c.8 0 1.5.7 1.5 1.5S20.3 6 19.5 6 18 5.3 18 4.5 18.7 3 19.5 3zm6 12c-.8 0-1.5-.7-1.5-1.5s.7-1.5 1.5-1.5 1.5.7 1.5 1.5-.7 1.5-1.5 1.5z" fill="#202020"/></svg>