<svg xmlns="http://www.w3.org/2000/svg" width="48" height="49" viewBox="0 0 48 49">
    <g fill="none" fill-rule="evenodd" stroke="#202020">
        <circle cx="24" cy="24" r="19" stroke-width="2"/>
        <g fill="#202020" stroke-width=".5">
            <path d="M2.237.929L.101.929.101 9.817 6.111 9.817 6.111 7.745 2.237 7.745zM7.435 9.817L9.571 9.817 9.571.929 7.435.929zM16.191 5.484L13.289.928 11.434.928 11.434 9.817 13.57 9.817 13.57 5.264 16.467 9.817 18.329 9.817 18.329.928 16.191.928zM26.207 3.001L26.207.929 20.197.929 20.197 9.817 26.207 9.817 26.207 7.745 22.332 7.745 22.332 6.341 25.639 6.341 25.639 4.34 22.332 4.34 22.332 3.001z" transform="translate(11 19)"/>
        </g>
    </g>
</svg>
